<svg width="137" height="36" viewBox="0 0 137 36" fill="none" xmlns="http://www.w3.org/2000/svg">
<path d="M23.1087 1.29554H22.8087V1.59554V23.468H22.0921L10.1347 1.45236L10.0495 1.29554H9.87108H1H0.7V1.59554V34.3045V34.6045H1H7.25112H7.55112V34.3045V12.432H8.26774L20.2252 34.4476L20.3103 34.6045H20.4888H29.3599H29.6599V34.3045V1.59554V1.29554H29.3599H23.1087ZM62.029 28.2116V27.9116H61.729H44.103V20.8154H57.3624H57.6624V20.5154V14.56V14.26H57.3624H44.103V7.98838H61.2234H61.5234V7.68838V1.59554V1.29554H61.2234H36.9544H36.6544V1.59554V34.3045V34.6045H36.9544H61.729H62.029V34.3045V28.2116ZM80.8049 11.1907H80.5769L80.5158 11.4103L76.4861 25.8959H75.7872L73.0593 1.56212L73.0294 1.29554H72.7611H66.1883H65.8503L65.8904 1.63112L69.7973 34.34L69.8289 34.6045H70.0952H80.1154H80.3461L80.4053 34.3814L84.7127 18.1584H85.4457L89.7075 34.3807L89.7663 34.6045H89.9977H100.018H100.284L100.316 34.34L104.223 1.63112L104.263 1.29554H103.925H97.4439H97.1761L97.1458 1.56157L94.3723 25.8959H93.7182L89.643 11.4094L89.5814 11.1907H89.3542H80.8049ZM134.802 10.8745H135.141L135.099 10.5375C134.722 7.49656 133.332 5.08504 130.935 3.32417C128.573 1.56697 125.565 0.7 121.932 0.7C118.054 0.7 114.959 1.64347 112.683 3.56525C110.411 5.4834 109.267 7.90265 109.267 10.8035C109.267 13.3515 109.987 15.42 111.452 16.976C112.912 18.5274 115.084 19.5366 117.927 20.0321C117.927 20.0321 117.927 20.0322 117.927 20.0322L124.175 21.131C124.175 21.1311 124.176 21.1312 124.176 21.1313C125.622 21.4016 126.668 21.8309 127.348 22.3954L127.348 22.3954L127.352 22.3992C128.03 22.9392 128.388 23.7582 128.388 24.9132C128.388 26.0916 127.89 27.0073 126.868 27.6869L126.864 27.6891C125.859 28.3765 124.469 28.7362 122.667 28.7362C120.522 28.7362 118.89 28.3477 117.739 27.6046C116.6 26.8689 115.903 25.7674 115.655 24.2687L115.613 24.0177H115.359H108.372H108.04L108.074 24.3485C108.419 27.6925 109.851 30.3501 112.372 32.2971C114.89 34.2427 118.24 35.2 122.391 35.2C126.693 35.2 130.036 34.2133 132.377 32.1953L132.379 32.1938C134.71 30.1536 135.883 27.6137 135.883 24.5926C135.883 21.8919 135.122 19.6944 133.573 18.0319C132.029 16.3739 129.732 15.2801 126.72 14.7231L126.719 14.7228L120.606 13.6234L120.606 13.6234C119.266 13.3834 118.3 12.9955 117.674 12.4838C117.061 11.9827 116.762 11.3536 116.762 10.5745C116.762 9.45352 117.216 8.63687 118.134 8.0826L118.134 8.08266L118.139 8.07915C119.09 7.47628 120.317 7.16378 121.84 7.16378C123.524 7.16378 124.818 7.46803 125.749 8.04631C126.671 8.61855 127.262 9.4745 127.522 10.6397L127.575 10.8745H127.815H134.802Z" fill="#FF5533" stroke="#FF5533" stroke-width="0.6"/>
</svg>
